<?xml version="1.0" encoding="utf-8" standalone="no"?>
<!DOCTYPE svg PUBLIC "-//W3C//DTD SVG 1.1//EN"
  "http://www.w3.org/Graphics/SVG/1.1/DTD/svg11.dtd">
<!-- Created with matplotlib (https://matplotlib.org/) -->
<svg height="345.6pt" version="1.1" viewBox="0 0 460.8 345.6" width="460.8pt" xmlns="http://www.w3.org/2000/svg" xmlns:xlink="http://www.w3.org/1999/xlink">
 <defs>
  <style type="text/css">
*{stroke-linecap:butt;stroke-linejoin:round;}
  </style>
 </defs>
 <g id="figure_1">
  <g id="patch_1">
   <path d="M 0 345.6 
L 460.8 345.6 
L 460.8 0 
L 0 0 
z
" style="fill:#ffffff;"/>
  </g>
  <g id="axes_1">
   <g id="patch_2">
    <path d="M 57.6 307.584 
L 414.72 307.584 
L 414.72 41.472 
L 57.6 41.472 
z
" style="fill:#ffffff;"/>
   </g>
   <g id="matplotlib.axis_1">
    <g id="xtick_1">
     <g id="line2d_1">
      <defs>
       <path d="M 0 0 
L 0 3.5 
" id="m93a7e1cd85" style="stroke:#000000;stroke-width:0.8;"/>
      </defs>
      <g>
       <use style="stroke:#000000;stroke-width:0.8;" x="73.832727" xlink:href="#m93a7e1cd85" y="307.584"/>
      </g>
     </g>
     <g id="text_1">
      <!-- 0.00 -->
      <defs>
       <path d="M 31.78125 66.40625 
Q 24.171875 66.40625 20.328125 58.90625 
Q 16.5 51.421875 16.5 36.375 
Q 16.5 21.390625 20.328125 13.890625 
Q 24.171875 6.390625 31.78125 6.390625 
Q 39.453125 6.390625 43.28125 13.890625 
Q 47.125 21.390625 47.125 36.375 
Q 47.125 51.421875 43.28125 58.90625 
Q 39.453125 66.40625 31.78125 66.40625 
z
M 31.78125 74.21875 
Q 44.046875 74.21875 50.515625 64.515625 
Q 56.984375 54.828125 56.984375 36.375 
Q 56.984375 17.96875 50.515625 8.265625 
Q 44.046875 -1.421875 31.78125 -1.421875 
Q 19.53125 -1.421875 13.0625 8.265625 
Q 6.59375 17.96875 6.59375 36.375 
Q 6.59375 54.828125 13.0625 64.515625 
Q 19.53125 74.21875 31.78125 74.21875 
z
" id="DejaVuSans-48"/>
       <path d="M 10.6875 12.40625 
L 21 12.40625 
L 21 0 
L 10.6875 0 
z
" id="DejaVuSans-46"/>
      </defs>
      <g transform="translate(62.699915 322.182437)scale(0.1 -0.1)">
       <use xlink:href="#DejaVuSans-48"/>
       <use x="63.623047" xlink:href="#DejaVuSans-46"/>
       <use x="95.410156" xlink:href="#DejaVuSans-48"/>
       <use x="159.033203" xlink:href="#DejaVuSans-48"/>
      </g>
     </g>
    </g>
    <g id="xtick_2">
     <g id="line2d_2">
      <g>
       <use style="stroke:#000000;stroke-width:0.8;" x="114.414545" xlink:href="#m93a7e1cd85" y="307.584"/>
      </g>
     </g>
     <g id="text_2">
      <!-- 0.05 -->
      <defs>
       <path d="M 10.796875 72.90625 
L 49.515625 72.90625 
L 49.515625 64.59375 
L 19.828125 64.59375 
L 19.828125 46.734375 
Q 21.96875 47.46875 24.109375 47.828125 
Q 26.265625 48.1875 28.421875 48.1875 
Q 40.625 48.1875 47.75 41.5 
Q 54.890625 34.8125 54.890625 23.390625 
Q 54.890625 11.625 47.5625 5.09375 
Q 40.234375 -1.421875 26.90625 -1.421875 
Q 22.3125 -1.421875 17.546875 -0.640625 
Q 12.796875 0.140625 7.71875 1.703125 
L 7.71875 11.625 
Q 12.109375 9.234375 16.796875 8.0625 
Q 21.484375 6.890625 26.703125 6.890625 
Q 35.15625 6.890625 40.078125 11.328125 
Q 45.015625 15.765625 45.015625 23.390625 
Q 45.015625 31 40.078125 35.4375 
Q 35.15625 39.890625 26.703125 39.890625 
Q 22.75 39.890625 18.8125 39.015625 
Q 14.890625 38.140625 10.796875 36.28125 
z
" id="DejaVuSans-53"/>
      </defs>
      <g transform="translate(103.281733 322.182437)scale(0.1 -0.1)">
       <use xlink:href="#DejaVuSans-48"/>
       <use x="63.623047" xlink:href="#DejaVuSans-46"/>
       <use x="95.410156" xlink:href="#DejaVuSans-48"/>
       <use x="159.033203" xlink:href="#DejaVuSans-53"/>
      </g>
     </g>
    </g>
    <g id="xtick_3">
     <g id="line2d_3">
      <g>
       <use style="stroke:#000000;stroke-width:0.8;" x="154.996364" xlink:href="#m93a7e1cd85" y="307.584"/>
      </g>
     </g>
     <g id="text_3">
      <!-- 0.10 -->
      <defs>
       <path d="M 12.40625 8.296875 
L 28.515625 8.296875 
L 28.515625 63.921875 
L 10.984375 60.40625 
L 10.984375 69.390625 
L 28.421875 72.90625 
L 38.28125 72.90625 
L 38.28125 8.296875 
L 54.390625 8.296875 
L 54.390625 0 
L 12.40625 0 
z
" id="DejaVuSans-49"/>
      </defs>
      <g transform="translate(143.863551 322.182437)scale(0.1 -0.1)">
       <use xlink:href="#DejaVuSans-48"/>
       <use x="63.623047" xlink:href="#DejaVuSans-46"/>
       <use x="95.410156" xlink:href="#DejaVuSans-49"/>
       <use x="159.033203" xlink:href="#DejaVuSans-48"/>
      </g>
     </g>
    </g>
    <g id="xtick_4">
     <g id="line2d_4">
      <g>
       <use style="stroke:#000000;stroke-width:0.8;" x="195.578182" xlink:href="#m93a7e1cd85" y="307.584"/>
      </g>
     </g>
     <g id="text_4">
      <!-- 0.15 -->
      <g transform="translate(184.445369 322.182437)scale(0.1 -0.1)">
       <use xlink:href="#DejaVuSans-48"/>
       <use x="63.623047" xlink:href="#DejaVuSans-46"/>
       <use x="95.410156" xlink:href="#DejaVuSans-49"/>
       <use x="159.033203" xlink:href="#DejaVuSans-53"/>
      </g>
     </g>
    </g>
    <g id="xtick_5">
     <g id="line2d_5">
      <g>
       <use style="stroke:#000000;stroke-width:0.8;" x="236.16" xlink:href="#m93a7e1cd85" y="307.584"/>
      </g>
     </g>
     <g id="text_5">
      <!-- 0.20 -->
      <defs>
       <path d="M 19.1875 8.296875 
L 53.609375 8.296875 
L 53.609375 0 
L 7.328125 0 
L 7.328125 8.296875 
Q 12.9375 14.109375 22.625 23.890625 
Q 32.328125 33.6875 34.8125 36.53125 
Q 39.546875 41.84375 41.421875 45.53125 
Q 43.3125 49.21875 43.3125 52.78125 
Q 43.3125 58.59375 39.234375 62.25 
Q 35.15625 65.921875 28.609375 65.921875 
Q 23.96875 65.921875 18.8125 64.3125 
Q 13.671875 62.703125 7.8125 59.421875 
L 7.8125 69.390625 
Q 13.765625 71.78125 18.9375 73 
Q 24.125 74.21875 28.421875 74.21875 
Q 39.75 74.21875 46.484375 68.546875 
Q 53.21875 62.890625 53.21875 53.421875 
Q 53.21875 48.921875 51.53125 44.890625 
Q 49.859375 40.875 45.40625 35.40625 
Q 44.1875 33.984375 37.640625 27.21875 
Q 31.109375 20.453125 19.1875 8.296875 
z
" id="DejaVuSans-50"/>
      </defs>
      <g transform="translate(225.027187 322.182437)scale(0.1 -0.1)">
       <use xlink:href="#DejaVuSans-48"/>
       <use x="63.623047" xlink:href="#DejaVuSans-46"/>
       <use x="95.410156" xlink:href="#DejaVuSans-50"/>
       <use x="159.033203" xlink:href="#DejaVuSans-48"/>
      </g>
     </g>
    </g>
    <g id="xtick_6">
     <g id="line2d_6">
      <g>
       <use style="stroke:#000000;stroke-width:0.8;" x="276.741818" xlink:href="#m93a7e1cd85" y="307.584"/>
      </g>
     </g>
     <g id="text_6">
      <!-- 0.25 -->
      <g transform="translate(265.609006 322.182437)scale(0.1 -0.1)">
       <use xlink:href="#DejaVuSans-48"/>
       <use x="63.623047" xlink:href="#DejaVuSans-46"/>
       <use x="95.410156" xlink:href="#DejaVuSans-50"/>
       <use x="159.033203" xlink:href="#DejaVuSans-53"/>
      </g>
     </g>
    </g>
    <g id="xtick_7">
     <g id="line2d_7">
      <g>
       <use style="stroke:#000000;stroke-width:0.8;" x="317.323636" xlink:href="#m93a7e1cd85" y="307.584"/>
      </g>
     </g>
     <g id="text_7">
      <!-- 0.30 -->
      <defs>
       <path d="M 40.578125 39.3125 
Q 47.65625 37.796875 51.625 33 
Q 55.609375 28.21875 55.609375 21.1875 
Q 55.609375 10.40625 48.1875 4.484375 
Q 40.765625 -1.421875 27.09375 -1.421875 
Q 22.515625 -1.421875 17.65625 -0.515625 
Q 12.796875 0.390625 7.625 2.203125 
L 7.625 11.71875 
Q 11.71875 9.328125 16.59375 8.109375 
Q 21.484375 6.890625 26.8125 6.890625 
Q 36.078125 6.890625 40.9375 10.546875 
Q 45.796875 14.203125 45.796875 21.1875 
Q 45.796875 27.640625 41.28125 31.265625 
Q 36.765625 34.90625 28.71875 34.90625 
L 20.21875 34.90625 
L 20.21875 43.015625 
L 29.109375 43.015625 
Q 36.375 43.015625 40.234375 45.921875 
Q 44.09375 48.828125 44.09375 54.296875 
Q 44.09375 59.90625 40.109375 62.90625 
Q 36.140625 65.921875 28.71875 65.921875 
Q 24.65625 65.921875 20.015625 65.03125 
Q 15.375 64.15625 9.8125 62.3125 
L 9.8125 71.09375 
Q 15.4375 72.65625 20.34375 73.4375 
Q 25.25 74.21875 29.59375 74.21875 
Q 40.828125 74.21875 47.359375 69.109375 
Q 53.90625 64.015625 53.90625 55.328125 
Q 53.90625 49.265625 50.4375 45.09375 
Q 46.96875 40.921875 40.578125 39.3125 
z
" id="DejaVuSans-51"/>
      </defs>
      <g transform="translate(306.190824 322.182437)scale(0.1 -0.1)">
       <use xlink:href="#DejaVuSans-48"/>
       <use x="63.623047" xlink:href="#DejaVuSans-46"/>
       <use x="95.410156" xlink:href="#DejaVuSans-51"/>
       <use x="159.033203" xlink:href="#DejaVuSans-48"/>
      </g>
     </g>
    </g>
    <g id="xtick_8">
     <g id="line2d_8">
      <g>
       <use style="stroke:#000000;stroke-width:0.8;" x="357.905455" xlink:href="#m93a7e1cd85" y="307.584"/>
      </g>
     </g>
     <g id="text_8">
      <!-- 0.35 -->
      <g transform="translate(346.772642 322.182437)scale(0.1 -0.1)">
       <use xlink:href="#DejaVuSans-48"/>
       <use x="63.623047" xlink:href="#DejaVuSans-46"/>
       <use x="95.410156" xlink:href="#DejaVuSans-51"/>
       <use x="159.033203" xlink:href="#DejaVuSans-53"/>
      </g>
     </g>
    </g>
    <g id="xtick_9">
     <g id="line2d_9">
      <g>
       <use style="stroke:#000000;stroke-width:0.8;" x="398.487273" xlink:href="#m93a7e1cd85" y="307.584"/>
      </g>
     </g>
     <g id="text_9">
      <!-- 0.40 -->
      <defs>
       <path d="M 37.796875 64.3125 
L 12.890625 25.390625 
L 37.796875 25.390625 
z
M 35.203125 72.90625 
L 47.609375 72.90625 
L 47.609375 25.390625 
L 58.015625 25.390625 
L 58.015625 17.1875 
L 47.609375 17.1875 
L 47.609375 0 
L 37.796875 0 
L 37.796875 17.1875 
L 4.890625 17.1875 
L 4.890625 26.703125 
z
" id="DejaVuSans-52"/>
      </defs>
      <g transform="translate(387.35446 322.182437)scale(0.1 -0.1)">
       <use xlink:href="#DejaVuSans-48"/>
       <use x="63.623047" xlink:href="#DejaVuSans-46"/>
       <use x="95.410156" xlink:href="#DejaVuSans-52"/>
       <use x="159.033203" xlink:href="#DejaVuSans-48"/>
      </g>
     </g>
    </g>
   </g>
   <g id="matplotlib.axis_2">
    <g id="ytick_1">
     <g id="line2d_10">
      <defs>
       <path d="M 0 0 
L -3.5 0 
" id="m0dca90c431" style="stroke:#000000;stroke-width:0.8;"/>
      </defs>
      <g>
       <use style="stroke:#000000;stroke-width:0.8;" x="57.6" xlink:href="#m0dca90c431" y="280.712581"/>
      </g>
     </g>
     <g id="text_10">
      <!-- 0.000001 -->
      <g transform="translate(2.884375 284.5118)scale(0.1 -0.1)">
       <use xlink:href="#DejaVuSans-48"/>
       <use x="63.623047" xlink:href="#DejaVuSans-46"/>
       <use x="95.410156" xlink:href="#DejaVuSans-48"/>
       <use x="159.033203" xlink:href="#DejaVuSans-48"/>
       <use x="222.65625" xlink:href="#DejaVuSans-48"/>
       <use x="286.279297" xlink:href="#DejaVuSans-48"/>
       <use x="349.902344" xlink:href="#DejaVuSans-48"/>
       <use x="413.525391" xlink:href="#DejaVuSans-49"/>
      </g>
     </g>
    </g>
    <g id="ytick_2">
     <g id="line2d_11">
      <g>
       <use style="stroke:#000000;stroke-width:0.8;" x="57.6" xlink:href="#m0dca90c431" y="249.382094"/>
      </g>
     </g>
     <g id="text_11">
      <!-- 0.000002 -->
      <g transform="translate(2.884375 253.181313)scale(0.1 -0.1)">
       <use xlink:href="#DejaVuSans-48"/>
       <use x="63.623047" xlink:href="#DejaVuSans-46"/>
       <use x="95.410156" xlink:href="#DejaVuSans-48"/>
       <use x="159.033203" xlink:href="#DejaVuSans-48"/>
       <use x="222.65625" xlink:href="#DejaVuSans-48"/>
       <use x="286.279297" xlink:href="#DejaVuSans-48"/>
       <use x="349.902344" xlink:href="#DejaVuSans-48"/>
       <use x="413.525391" xlink:href="#DejaVuSans-50"/>
      </g>
     </g>
    </g>
    <g id="ytick_3">
     <g id="line2d_12">
      <g>
       <use style="stroke:#000000;stroke-width:0.8;" x="57.6" xlink:href="#m0dca90c431" y="218.051608"/>
      </g>
     </g>
     <g id="text_12">
      <!-- 0.000003 -->
      <g transform="translate(2.884375 221.850827)scale(0.1 -0.1)">
       <use xlink:href="#DejaVuSans-48"/>
       <use x="63.623047" xlink:href="#DejaVuSans-46"/>
       <use x="95.410156" xlink:href="#DejaVuSans-48"/>
       <use x="159.033203" xlink:href="#DejaVuSans-48"/>
       <use x="222.65625" xlink:href="#DejaVuSans-48"/>
       <use x="286.279297" xlink:href="#DejaVuSans-48"/>
       <use x="349.902344" xlink:href="#DejaVuSans-48"/>
       <use x="413.525391" xlink:href="#DejaVuSans-51"/>
      </g>
     </g>
    </g>
    <g id="ytick_4">
     <g id="line2d_13">
      <g>
       <use style="stroke:#000000;stroke-width:0.8;" x="57.6" xlink:href="#m0dca90c431" y="186.721121"/>
      </g>
     </g>
     <g id="text_13">
      <!-- 0.000004 -->
      <g transform="translate(2.884375 190.52034)scale(0.1 -0.1)">
       <use xlink:href="#DejaVuSans-48"/>
       <use x="63.623047" xlink:href="#DejaVuSans-46"/>
       <use x="95.410156" xlink:href="#DejaVuSans-48"/>
       <use x="159.033203" xlink:href="#DejaVuSans-48"/>
       <use x="222.65625" xlink:href="#DejaVuSans-48"/>
       <use x="286.279297" xlink:href="#DejaVuSans-48"/>
       <use x="349.902344" xlink:href="#DejaVuSans-48"/>
       <use x="413.525391" xlink:href="#DejaVuSans-52"/>
      </g>
     </g>
    </g>
    <g id="ytick_5">
     <g id="line2d_14">
      <g>
       <use style="stroke:#000000;stroke-width:0.8;" x="57.6" xlink:href="#m0dca90c431" y="155.390635"/>
      </g>
     </g>
     <g id="text_14">
      <!-- 0.000005 -->
      <g transform="translate(2.884375 159.189854)scale(0.1 -0.1)">
       <use xlink:href="#DejaVuSans-48"/>
       <use x="63.623047" xlink:href="#DejaVuSans-46"/>
       <use x="95.410156" xlink:href="#DejaVuSans-48"/>
       <use x="159.033203" xlink:href="#DejaVuSans-48"/>
       <use x="222.65625" xlink:href="#DejaVuSans-48"/>
       <use x="286.279297" xlink:href="#DejaVuSans-48"/>
       <use x="349.902344" xlink:href="#DejaVuSans-48"/>
       <use x="413.525391" xlink:href="#DejaVuSans-53"/>
      </g>
     </g>
    </g>
    <g id="ytick_6">
     <g id="line2d_15">
      <g>
       <use style="stroke:#000000;stroke-width:0.8;" x="57.6" xlink:href="#m0dca90c431" y="124.060148"/>
      </g>
     </g>
     <g id="text_15">
      <!-- 0.000006 -->
      <defs>
       <path d="M 33.015625 40.375 
Q 26.375 40.375 22.484375 35.828125 
Q 18.609375 31.296875 18.609375 23.390625 
Q 18.609375 15.53125 22.484375 10.953125 
Q 26.375 6.390625 33.015625 6.390625 
Q 39.65625 6.390625 43.53125 10.953125 
Q 47.40625 15.53125 47.40625 23.390625 
Q 47.40625 31.296875 43.53125 35.828125 
Q 39.65625 40.375 33.015625 40.375 
z
M 52.59375 71.296875 
L 52.59375 62.3125 
Q 48.875 64.0625 45.09375 64.984375 
Q 41.3125 65.921875 37.59375 65.921875 
Q 27.828125 65.921875 22.671875 59.328125 
Q 17.53125 52.734375 16.796875 39.40625 
Q 19.671875 43.65625 24.015625 45.921875 
Q 28.375 48.1875 33.59375 48.1875 
Q 44.578125 48.1875 50.953125 41.515625 
Q 57.328125 34.859375 57.328125 23.390625 
Q 57.328125 12.15625 50.6875 5.359375 
Q 44.046875 -1.421875 33.015625 -1.421875 
Q 20.359375 -1.421875 13.671875 8.265625 
Q 6.984375 17.96875 6.984375 36.375 
Q 6.984375 53.65625 15.1875 63.9375 
Q 23.390625 74.21875 37.203125 74.21875 
Q 40.921875 74.21875 44.703125 73.484375 
Q 48.484375 72.75 52.59375 71.296875 
z
" id="DejaVuSans-54"/>
      </defs>
      <g transform="translate(2.884375 127.859367)scale(0.1 -0.1)">
       <use xlink:href="#DejaVuSans-48"/>
       <use x="63.623047" xlink:href="#DejaVuSans-46"/>
       <use x="95.410156" xlink:href="#DejaVuSans-48"/>
       <use x="159.033203" xlink:href="#DejaVuSans-48"/>
       <use x="222.65625" xlink:href="#DejaVuSans-48"/>
       <use x="286.279297" xlink:href="#DejaVuSans-48"/>
       <use x="349.902344" xlink:href="#DejaVuSans-48"/>
       <use x="413.525391" xlink:href="#DejaVuSans-54"/>
      </g>
     </g>
    </g>
    <g id="ytick_7">
     <g id="line2d_16">
      <g>
       <use style="stroke:#000000;stroke-width:0.8;" x="57.6" xlink:href="#m0dca90c431" y="92.729662"/>
      </g>
     </g>
     <g id="text_16">
      <!-- 0.000007 -->
      <defs>
       <path d="M 8.203125 72.90625 
L 55.078125 72.90625 
L 55.078125 68.703125 
L 28.609375 0 
L 18.3125 0 
L 43.21875 64.59375 
L 8.203125 64.59375 
z
" id="DejaVuSans-55"/>
      </defs>
      <g transform="translate(2.884375 96.528881)scale(0.1 -0.1)">
       <use xlink:href="#DejaVuSans-48"/>
       <use x="63.623047" xlink:href="#DejaVuSans-46"/>
       <use x="95.410156" xlink:href="#DejaVuSans-48"/>
       <use x="159.033203" xlink:href="#DejaVuSans-48"/>
       <use x="222.65625" xlink:href="#DejaVuSans-48"/>
       <use x="286.279297" xlink:href="#DejaVuSans-48"/>
       <use x="349.902344" xlink:href="#DejaVuSans-48"/>
       <use x="413.525391" xlink:href="#DejaVuSans-55"/>
      </g>
     </g>
    </g>
    <g id="ytick_8">
     <g id="line2d_17">
      <g>
       <use style="stroke:#000000;stroke-width:0.8;" x="57.6" xlink:href="#m0dca90c431" y="61.399175"/>
      </g>
     </g>
     <g id="text_17">
      <!-- 0.000008 -->
      <defs>
       <path d="M 31.78125 34.625 
Q 24.75 34.625 20.71875 30.859375 
Q 16.703125 27.09375 16.703125 20.515625 
Q 16.703125 13.921875 20.71875 10.15625 
Q 24.75 6.390625 31.78125 6.390625 
Q 38.8125 6.390625 42.859375 10.171875 
Q 46.921875 13.96875 46.921875 20.515625 
Q 46.921875 27.09375 42.890625 30.859375 
Q 38.875 34.625 31.78125 34.625 
z
M 21.921875 38.8125 
Q 15.578125 40.375 12.03125 44.71875 
Q 8.5 49.078125 8.5 55.328125 
Q 8.5 64.0625 14.71875 69.140625 
Q 20.953125 74.21875 31.78125 74.21875 
Q 42.671875 74.21875 48.875 69.140625 
Q 55.078125 64.0625 55.078125 55.328125 
Q 55.078125 49.078125 51.53125 44.71875 
Q 48 40.375 41.703125 38.8125 
Q 48.828125 37.15625 52.796875 32.3125 
Q 56.78125 27.484375 56.78125 20.515625 
Q 56.78125 9.90625 50.3125 4.234375 
Q 43.84375 -1.421875 31.78125 -1.421875 
Q 19.734375 -1.421875 13.25 4.234375 
Q 6.78125 9.90625 6.78125 20.515625 
Q 6.78125 27.484375 10.78125 32.3125 
Q 14.796875 37.15625 21.921875 38.8125 
z
M 18.3125 54.390625 
Q 18.3125 48.734375 21.84375 45.5625 
Q 25.390625 42.390625 31.78125 42.390625 
Q 38.140625 42.390625 41.71875 45.5625 
Q 45.3125 48.734375 45.3125 54.390625 
Q 45.3125 60.0625 41.71875 63.234375 
Q 38.140625 66.40625 31.78125 66.40625 
Q 25.390625 66.40625 21.84375 63.234375 
Q 18.3125 60.0625 18.3125 54.390625 
z
" id="DejaVuSans-56"/>
      </defs>
      <g transform="translate(2.884375 65.198394)scale(0.1 -0.1)">
       <use xlink:href="#DejaVuSans-48"/>
       <use x="63.623047" xlink:href="#DejaVuSans-46"/>
       <use x="95.410156" xlink:href="#DejaVuSans-48"/>
       <use x="159.033203" xlink:href="#DejaVuSans-48"/>
       <use x="222.65625" xlink:href="#DejaVuSans-48"/>
       <use x="286.279297" xlink:href="#DejaVuSans-48"/>
       <use x="349.902344" xlink:href="#DejaVuSans-48"/>
       <use x="413.525391" xlink:href="#DejaVuSans-56"/>
      </g>
     </g>
    </g>
   </g>
   <g id="line2d_18">
    <path clip-path="url(#p8788f87291)" d="M 73.832727 129.441175 
L 106.298182 141.21132 
L 138.763636 155.875678 
L 171.229091 171.796629 
L 203.694545 189.389124 
L 236.16 208.267791 
L 268.625455 228.315379 
L 301.090909 248.529511 
L 333.556364 266.041018 
L 366.021818 276.363076 
L 398.487273 276.657553 
" style="fill:none;stroke:#1f77b4;stroke-linecap:square;stroke-width:1.5;"/>
   </g>
   <g id="line2d_19">
    <path clip-path="url(#p8788f87291)" d="M 73.832727 181.986991 
L 106.298182 191.53636 
L 138.763636 203.024025 
L 171.229091 215.310922 
L 203.694545 228.663667 
L 236.16 242.929306 
L 268.625455 257.749438 
L 301.090909 272.192736 
L 333.556364 284.064824 
L 366.021818 289.814266 
L 398.487273 287.783635 
" style="fill:none;stroke:#ff7f0e;stroke-linecap:square;stroke-width:1.5;"/>
   </g>
   <g id="line2d_20">
    <path clip-path="url(#p8788f87291)" d="M 73.832727 119.902174 
L 106.298182 130.996177 
L 138.763636 145.18824 
L 171.229091 161.044134 
L 203.694545 178.679939 
L 236.16 198.046145 
L 268.625455 218.885189 
L 301.090909 240.614042 
L 333.556364 259.970832 
L 366.021818 272.199084 
L 398.487273 273.62001 
" style="fill:none;stroke:#2ca02c;stroke-linecap:square;stroke-width:1.5;"/>
   </g>
   <g id="line2d_21">
    <path clip-path="url(#p8788f87291)" d="M 73.832727 214.05289 
L 106.298182 221.653146 
L 138.763636 230.713238 
L 171.229091 240.245261 
L 203.694545 250.578857 
L 236.16 261.295992 
L 268.625455 272.394819 
L 301.090909 282.969511 
L 333.556364 291.386048 
L 366.021818 295.488 
L 398.487273 294.325792 
" style="fill:none;stroke:#d62728;stroke-linecap:square;stroke-width:1.5;"/>
   </g>
   <g id="line2d_22">
    <path clip-path="url(#p8788f87291)" d="M 73.832727 148.121579 
L 106.298182 158.8412 
L 138.763636 172.289281 
L 171.229091 186.970703 
L 203.694545 202.992107 
L 236.16 220.331605 
L 268.625455 238.610768 
L 301.090909 256.992598 
L 333.556364 272.786386 
L 366.021818 282.03946 
L 398.487273 282.418566 
" style="fill:none;stroke:#9467bd;stroke-linecap:square;stroke-width:1.5;"/>
   </g>
   <g id="line2d_23">
    <path clip-path="url(#p8788f87291)" d="M 73.832727 213.576413 
L 106.298182 220.405505 
L 138.763636 228.783265 
L 171.229091 237.785886 
L 203.694545 247.613022 
L 236.16 258.03938 
L 268.625455 268.973813 
L 301.090909 279.812659 
L 333.556364 289.188567 
L 366.021818 294.68128 
L 398.487273 294.78154 
" style="fill:none;stroke:#8c564b;stroke-linecap:square;stroke-width:1.5;"/>
   </g>
   <g id="line2d_24">
    <path clip-path="url(#p8788f87291)" d="M 73.832727 148.424824 
L 106.298182 159.852302 
L 138.763636 173.736412 
L 171.229091 188.801633 
L 203.694545 205.30825 
L 236.16 222.978014 
L 268.625455 241.650018 
L 301.090909 260.13001 
L 333.556364 275.687776 
L 366.021818 283.818742 
L 398.487273 282.362519 
" style="fill:none;stroke:#e377c2;stroke-linecap:square;stroke-width:1.5;"/>
   </g>
   <g id="line2d_25">
    <path clip-path="url(#p8788f87291)" d="M 73.832727 95.757373 
L 106.298182 109.738896 
L 138.763636 127.157491 
L 171.229091 146.203206 
L 203.694545 167.162163 
L 236.16 189.557491 
L 268.625455 213.118839 
L 301.090909 236.679422 
L 333.556364 257.466422 
L 366.021818 270.912329 
L 398.487273 273.069154 
" style="fill:none;stroke:#7f7f7f;stroke-linecap:square;stroke-width:1.5;"/>
   </g>
   <g id="line2d_26">
    <path clip-path="url(#p8788f87291)" d="M 73.832727 84.205675 
L 106.298182 99.133303 
L 138.763636 117.599305 
L 171.229091 137.918829 
L 203.694545 160.685929 
L 236.16 185.421457 
L 268.625455 211.745574 
L 301.090909 237.864821 
L 333.556364 259.726237 
L 366.021818 271.235693 
L 398.487273 268.874434 
" style="fill:none;stroke:#bcbd22;stroke-linecap:square;stroke-width:1.5;"/>
   </g>
   <g id="line2d_27">
    <path clip-path="url(#p8788f87291)" d="M 73.832727 190.273588 
L 106.298182 198.356817 
L 138.763636 208.201425 
L 171.229091 218.952358 
L 203.694545 230.656964 
L 236.16 243.22949 
L 268.625455 256.500445 
L 301.090909 269.864329 
L 333.556364 281.762471 
L 366.021818 289.335867 
L 398.487273 290.287175 
" style="fill:none;stroke:#17becf;stroke-linecap:square;stroke-width:1.5;"/>
   </g>
   <g id="line2d_28">
    <path clip-path="url(#p8788f87291)" d="M 73.832727 112.156731 
L 106.298182 125.193892 
L 138.763636 141.678492 
L 171.229091 159.743038 
L 203.694545 179.676924 
L 236.16 201.313165 
L 268.625455 224.257167 
L 301.090909 247.102222 
L 333.556364 265.869598 
L 366.021818 275.270449 
L 398.487273 273.230049 
" style="fill:none;stroke:#1f77b4;stroke-linecap:square;stroke-width:1.5;"/>
   </g>
   <g id="line2d_29">
    <path clip-path="url(#p8788f87291)" d="M 73.832727 140.341174 
L 106.298182 150.89153 
L 138.763636 164.350515 
L 171.229091 179.12855 
L 203.694545 195.357456 
L 236.16 212.699288 
L 268.625455 230.948076 
L 301.090909 249.345822 
L 333.556364 266.094603 
L 366.021818 278.223732 
L 398.487273 282.151223 
" style="fill:none;stroke:#ff7f0e;stroke-linecap:square;stroke-width:1.5;"/>
   </g>
   <g id="line2d_30">
    <path clip-path="url(#p8788f87291)" d="M 73.832727 178.530439 
L 106.298182 188.524177 
L 138.763636 200.578459 
L 171.229091 213.446298 
L 203.694545 227.559811 
L 236.16 242.531037 
L 268.625455 258.13905 
L 301.090909 272.899483 
L 333.556364 284.188302 
L 366.021818 288.756854 
L 398.487273 285.594252 
" style="fill:none;stroke:#2ca02c;stroke-linecap:square;stroke-width:1.5;"/>
   </g>
   <g id="line2d_31">
    <path clip-path="url(#p8788f87291)" d="M 73.832727 53.568 
L 106.298182 66.664605 
L 138.763636 84.376096 
L 171.229091 104.20837 
L 203.694545 126.461188 
L 236.16 150.659967 
L 268.625455 177.073058 
L 301.090909 204.503435 
L 333.556364 229.947915 
L 366.021818 247.608523 
L 398.487273 252.82335 
" style="fill:none;stroke:#d62728;stroke-linecap:square;stroke-width:1.5;"/>
   </g>
   <g id="line2d_32">
    <path clip-path="url(#p8788f87291)" d="M 73.832727 128.831386 
L 106.298182 142.074508 
L 138.763636 158.16503 
L 171.229091 175.635491 
L 203.694545 194.683213 
L 236.16 215.005934 
L 268.625455 236.061188 
L 301.090909 256.539054 
L 333.556364 272.90804 
L 366.021818 280.421936 
L 398.487273 277.512656 
" style="fill:none;stroke:#9467bd;stroke-linecap:square;stroke-width:1.5;"/>
   </g>
   <g id="line2d_33">
    <path clip-path="url(#p8788f87291)" d="M 73.832727 126.48545 
L 106.298182 139.344186 
L 138.763636 155.155119 
L 171.229091 172.248188 
L 203.694545 191.164355 
L 236.16 211.398053 
L 268.625455 232.588319 
L 301.090909 253.478741 
L 333.556364 270.787381 
L 366.021818 280.032907 
L 398.487273 278.827423 
" style="fill:none;stroke:#8c564b;stroke-linecap:square;stroke-width:1.5;"/>
   </g>
   <g id="line2d_34">
    <path clip-path="url(#p8788f87291)" d="M 73.832727 113.885487 
L 106.298182 125.101905 
L 138.763636 139.699382 
L 171.229091 155.960634 
L 203.694545 174.132359 
L 236.16 193.914295 
L 268.625455 215.071832 
L 301.090909 236.67607 
L 333.556364 256.556406 
L 366.021818 270.56352 
L 398.487273 274.57919 
" style="fill:none;stroke:#e377c2;stroke-linecap:square;stroke-width:1.5;"/>
   </g>
   <g id="line2d_35">
    <path clip-path="url(#p8788f87291)" d="M 73.832727 172.154592 
L 106.298182 182.171519 
L 138.763636 194.253976 
L 171.229091 207.322761 
L 203.694545 221.598076 
L 236.16 236.900294 
L 268.625455 252.814647 
L 301.090909 268.477882 
L 333.556364 281.384512 
L 366.021818 288.242928 
L 398.487273 287.04678 
" style="fill:none;stroke:#7f7f7f;stroke-linecap:square;stroke-width:1.5;"/>
   </g>
   <g id="line2d_36">
    <path clip-path="url(#p8788f87291)" d="M 73.832727 114.652427 
L 106.298182 126.598541 
L 138.763636 142.021591 
L 171.229091 158.829767 
L 203.694545 177.286037 
L 236.16 197.218997 
L 268.625455 218.35622 
L 301.090909 239.777811 
L 333.556364 259.041821 
L 366.021818 271.672274 
L 398.487273 273.740935 
" style="fill:none;stroke:#bcbd22;stroke-linecap:square;stroke-width:1.5;"/>
   </g>
   <g id="line2d_37">
    <path clip-path="url(#p8788f87291)" d="M 73.832727 154.397238 
L 106.298182 165.368892 
L 138.763636 178.961203 
L 171.229091 193.604434 
L 203.694545 209.556916 
L 236.16 226.380026 
L 268.625455 244.00522 
L 301.090909 261.292625 
L 333.556364 276.045933 
L 366.021818 284.561742 
L 398.487273 284.376168 
" style="fill:none;stroke:#17becf;stroke-linecap:square;stroke-width:1.5;"/>
   </g>
   <g id="line2d_38">
    <path clip-path="url(#p8788f87291)" d="M 73.832727 126.396975 
L 106.298182 138.937111 
L 138.763636 154.316752 
L 171.229091 170.988406 
L 203.694545 189.248082 
L 236.16 208.696766 
L 268.625455 229.073827 
L 301.090909 249.276835 
L 333.556364 266.957094 
L 366.021818 278.200545 
L 398.487273 279.533355 
" style="fill:none;stroke:#1f77b4;stroke-linecap:square;stroke-width:1.5;"/>
   </g>
   <g id="line2d_39">
    <path clip-path="url(#p8788f87291)" d="M 73.832727 138.6033 
L 106.298182 150.959104 
L 138.763636 166.221957 
L 171.229091 182.750315 
L 203.694545 201.048677 
L 236.16 220.698199 
L 268.625455 241.453745 
L 301.090909 261.292238 
L 333.556364 276.010316 
L 366.021818 281.043511 
L 398.487273 276.210242 
" style="fill:none;stroke:#ff7f0e;stroke-linecap:square;stroke-width:1.5;"/>
   </g>
   <g id="line2d_40">
    <path clip-path="url(#p8788f87291)" d="M 73.832727 108.492613 
L 106.298182 121.624853 
L 138.763636 137.984206 
L 171.229091 156.082653 
L 203.694545 176.22058 
L 236.16 198.221652 
L 268.625455 221.693633 
L 301.090909 245.26256 
L 333.556364 264.807985 
L 366.021818 274.920133 
L 398.487273 272.831871 
" style="fill:none;stroke:#2ca02c;stroke-linecap:square;stroke-width:1.5;"/>
   </g>
   <g id="line2d_41">
    <path clip-path="url(#p8788f87291)" d="M 73.832727 137.283661 
L 106.298182 148.400317 
L 138.763636 162.355093 
L 171.229091 177.643753 
L 203.694545 194.328336 
L 236.16 212.13697 
L 268.625455 230.837582 
L 301.090909 249.595726 
L 333.556364 266.527498 
L 366.021818 278.561906 
L 398.487273 282.243049 
" style="fill:none;stroke:#d62728;stroke-linecap:square;stroke-width:1.5;"/>
   </g>
   <g id="line2d_42">
    <path clip-path="url(#p8788f87291)" d="M 73.832727 149.201494 
L 106.298182 161.152725 
L 138.763636 175.439719 
L 171.229091 190.828312 
L 203.694545 207.658402 
L 236.16 225.706278 
L 268.625455 244.667486 
L 301.090909 263.235961 
L 333.556364 278.153764 
L 366.021818 285.088121 
L 398.487273 282.044625 
" style="fill:none;stroke:#9467bd;stroke-linecap:square;stroke-width:1.5;"/>
   </g>
   <g id="line2d_43">
    <path clip-path="url(#p8788f87291)" d="M 73.832727 130.624872 
L 106.298182 143.414477 
L 138.763636 159.203938 
L 171.229091 176.289424 
L 203.694545 194.873888 
L 236.16 214.700285 
L 268.625455 235.344867 
L 301.090909 255.684641 
L 333.556364 272.604491 
L 366.021818 281.143513 
L 398.487273 278.935203 
" style="fill:none;stroke:#8c564b;stroke-linecap:square;stroke-width:1.5;"/>
   </g>
   <g id="line2d_44">
    <path clip-path="url(#p8788f87291)" d="M 73.832727 175.324937 
L 106.298182 185.274211 
L 138.763636 197.084123 
L 171.229091 209.798205 
L 203.694545 223.554829 
L 236.16 238.13315 
L 268.625455 253.330968 
L 301.090909 268.350439 
L 333.556364 281.270461 
L 366.021818 288.582776 
L 398.487273 287.842306 
" style="fill:none;stroke:#e377c2;stroke-linecap:square;stroke-width:1.5;"/>
   </g>
   <g id="line2d_45">
    <path clip-path="url(#p8788f87291)" d="M 73.832727 126.159832 
L 106.298182 138.287137 
L 138.763636 153.202363 
L 171.229091 169.602429 
L 203.694545 187.812302 
L 236.16 207.553506 
L 268.625455 228.624241 
L 301.090909 249.724278 
L 333.556364 267.35593 
L 366.021818 276.564534 
L 398.487273 274.420727 
" style="fill:none;stroke:#7f7f7f;stroke-linecap:square;stroke-width:1.5;"/>
   </g>
   <g id="line2d_46">
    <path clip-path="url(#p8788f87291)" d="M 73.832727 124.258817 
L 106.298182 136.308999 
L 138.763636 151.072682 
L 171.229091 167.404235 
L 203.694545 185.549055 
L 236.16 205.354961 
L 268.625455 226.560525 
L 301.090909 247.940588 
L 333.556364 266.136759 
L 366.021818 276.243487 
L 398.487273 275.075711 
" style="fill:none;stroke:#bcbd22;stroke-linecap:square;stroke-width:1.5;"/>
   </g>
   <g id="line2d_47">
    <path clip-path="url(#p8788f87291)" d="M 73.832727 144.199687 
L 106.298182 155.713377 
L 138.763636 170.044952 
L 171.229091 185.514797 
L 203.694545 202.461606 
L 236.16 220.402261 
L 268.625455 239.215512 
L 301.090909 257.774543 
L 333.556364 273.518544 
L 366.021818 282.294864 
L 398.487273 281.51073 
" style="fill:none;stroke:#17becf;stroke-linecap:square;stroke-width:1.5;"/>
   </g>
   <g id="line2d_48">
    <path clip-path="url(#p8788f87291)" d="M 73.832727 155.2211 
L 106.298182 165.748716 
L 138.763636 178.553483 
L 171.229091 192.522614 
L 203.694545 207.818085 
L 236.16 224.194192 
L 268.625455 241.489811 
L 301.090909 258.674179 
L 333.556364 273.688377 
L 366.021818 282.997656 
L 398.487273 283.656829 
" style="fill:none;stroke:#1f77b4;stroke-linecap:square;stroke-width:1.5;"/>
   </g>
   <g id="line2d_49">
    <path clip-path="url(#p8788f87291)" d="M 73.832727 124.058585 
L 106.298182 135.770961 
L 138.763636 150.315391 
L 171.229091 166.482968 
L 203.694545 184.493404 
L 236.16 204.225384 
L 268.625455 225.344635 
L 301.090909 246.693851 
L 333.556364 265.141864 
L 366.021818 275.76206 
L 398.487273 275.285667 
" style="fill:none;stroke:#ff7f0e;stroke-linecap:square;stroke-width:1.5;"/>
   </g>
   <g id="patch_3">
    <path d="M 57.6 307.584 
L 57.6 41.472 
" style="fill:none;stroke:#000000;stroke-linecap:square;stroke-linejoin:miter;stroke-width:0.8;"/>
   </g>
   <g id="patch_4">
    <path d="M 414.72 307.584 
L 414.72 41.472 
" style="fill:none;stroke:#000000;stroke-linecap:square;stroke-linejoin:miter;stroke-width:0.8;"/>
   </g>
   <g id="patch_5">
    <path d="M 57.6 307.584 
L 414.72 307.584 
" style="fill:none;stroke:#000000;stroke-linecap:square;stroke-linejoin:miter;stroke-width:0.8;"/>
   </g>
   <g id="patch_6">
    <path d="M 57.6 41.472 
L 414.72 41.472 
" style="fill:none;stroke:#000000;stroke-linecap:square;stroke-linejoin:miter;stroke-width:0.8;"/>
   </g>
   <g id="legend_1">
    <g id="patch_7">
     <path d="M 308.741875 519.172 
L 407.72 519.172 
Q 409.72 519.172 409.72 517.172 
L 409.72 48.472 
Q 409.72 46.472 407.72 46.472 
L 308.741875 46.472 
Q 306.741875 46.472 306.741875 48.472 
L 306.741875 517.172 
Q 306.741875 519.172 308.741875 519.172 
z
" style="fill:#ffffff;opacity:0.8;stroke:#cccccc;stroke-linejoin:miter;"/>
    </g>
    <g id="line2d_50">
     <path d="M 310.741875 54.570437 
L 330.741875 54.570437 
" style="fill:none;stroke:#1f77b4;stroke-linecap:square;stroke-width:1.5;"/>
    </g>
    <g id="line2d_51"/>
    <g id="text_18">
     <!-- R4Col3Ac000 -->
     <defs>
      <path d="M 44.390625 34.1875 
Q 47.5625 33.109375 50.5625 29.59375 
Q 53.5625 26.078125 56.59375 19.921875 
L 66.609375 0 
L 56 0 
L 46.6875 18.703125 
Q 43.0625 26.03125 39.671875 28.421875 
Q 36.28125 30.8125 30.421875 30.8125 
L 19.671875 30.8125 
L 19.671875 0 
L 9.8125 0 
L 9.8125 72.90625 
L 32.078125 72.90625 
Q 44.578125 72.90625 50.734375 67.671875 
Q 56.890625 62.453125 56.890625 51.90625 
Q 56.890625 45.015625 53.6875 40.46875 
Q 50.484375 35.9375 44.390625 34.1875 
z
M 19.671875 64.796875 
L 19.671875 38.921875 
L 32.078125 38.921875 
Q 39.203125 38.921875 42.84375 42.21875 
Q 46.484375 45.515625 46.484375 51.90625 
Q 46.484375 58.296875 42.84375 61.546875 
Q 39.203125 64.796875 32.078125 64.796875 
z
" id="DejaVuSans-82"/>
      <path d="M 64.40625 67.28125 
L 64.40625 56.890625 
Q 59.421875 61.53125 53.78125 63.8125 
Q 48.140625 66.109375 41.796875 66.109375 
Q 29.296875 66.109375 22.65625 58.46875 
Q 16.015625 50.828125 16.015625 36.375 
Q 16.015625 21.96875 22.65625 14.328125 
Q 29.296875 6.6875 41.796875 6.6875 
Q 48.140625 6.6875 53.78125 8.984375 
Q 59.421875 11.28125 64.40625 15.921875 
L 64.40625 5.609375 
Q 59.234375 2.09375 53.4375 0.328125 
Q 47.65625 -1.421875 41.21875 -1.421875 
Q 24.65625 -1.421875 15.125 8.703125 
Q 5.609375 18.84375 5.609375 36.375 
Q 5.609375 53.953125 15.125 64.078125 
Q 24.65625 74.21875 41.21875 74.21875 
Q 47.75 74.21875 53.53125 72.484375 
Q 59.328125 70.75 64.40625 67.28125 
z
" id="DejaVuSans-67"/>
      <path d="M 30.609375 48.390625 
Q 23.390625 48.390625 19.1875 42.75 
Q 14.984375 37.109375 14.984375 27.296875 
Q 14.984375 17.484375 19.15625 11.84375 
Q 23.34375 6.203125 30.609375 6.203125 
Q 37.796875 6.203125 41.984375 11.859375 
Q 46.1875 17.53125 46.1875 27.296875 
Q 46.1875 37.015625 41.984375 42.703125 
Q 37.796875 48.390625 30.609375 48.390625 
z
M 30.609375 56 
Q 42.328125 56 49.015625 48.375 
Q 55.71875 40.765625 55.71875 27.296875 
Q 55.71875 13.875 49.015625 6.21875 
Q 42.328125 -1.421875 30.609375 -1.421875 
Q 18.84375 -1.421875 12.171875 6.21875 
Q 5.515625 13.875 5.515625 27.296875 
Q 5.515625 40.765625 12.171875 48.375 
Q 18.84375 56 30.609375 56 
z
" id="DejaVuSans-111"/>
      <path d="M 9.421875 75.984375 
L 18.40625 75.984375 
L 18.40625 0 
L 9.421875 0 
z
" id="DejaVuSans-108"/>
      <path d="M 34.1875 63.1875 
L 20.796875 26.90625 
L 47.609375 26.90625 
z
M 28.609375 72.90625 
L 39.796875 72.90625 
L 67.578125 0 
L 57.328125 0 
L 50.6875 18.703125 
L 17.828125 18.703125 
L 11.1875 0 
L 0.78125 0 
z
" id="DejaVuSans-65"/>
      <path d="M 48.78125 52.59375 
L 48.78125 44.1875 
Q 44.96875 46.296875 41.140625 47.34375 
Q 37.3125 48.390625 33.40625 48.390625 
Q 24.65625 48.390625 19.8125 42.84375 
Q 14.984375 37.3125 14.984375 27.296875 
Q 14.984375 17.28125 19.8125 11.734375 
Q 24.65625 6.203125 33.40625 6.203125 
Q 37.3125 6.203125 41.140625 7.25 
Q 44.96875 8.296875 48.78125 10.40625 
L 48.78125 2.09375 
Q 45.015625 0.34375 40.984375 -0.53125 
Q 36.96875 -1.421875 32.421875 -1.421875 
Q 20.0625 -1.421875 12.78125 6.34375 
Q 5.515625 14.109375 5.515625 27.296875 
Q 5.515625 40.671875 12.859375 48.328125 
Q 20.21875 56 33.015625 56 
Q 37.15625 56 41.109375 55.140625 
Q 45.0625 54.296875 48.78125 52.59375 
z
" id="DejaVuSans-99"/>
     </defs>
     <g transform="translate(338.741875 58.070437)scale(0.1 -0.1)">
      <use xlink:href="#DejaVuSans-82"/>
      <use x="69.482422" xlink:href="#DejaVuSans-52"/>
      <use x="133.105469" xlink:href="#DejaVuSans-67"/>
      <use x="202.929688" xlink:href="#DejaVuSans-111"/>
      <use x="264.111328" xlink:href="#DejaVuSans-108"/>
      <use x="291.894531" xlink:href="#DejaVuSans-51"/>
      <use x="355.517578" xlink:href="#DejaVuSans-65"/>
      <use x="423.910156" xlink:href="#DejaVuSans-99"/>
      <use x="478.890625" xlink:href="#DejaVuSans-48"/>
      <use x="542.513672" xlink:href="#DejaVuSans-48"/>
      <use x="606.136719" xlink:href="#DejaVuSans-48"/>
     </g>
    </g>
    <g id="line2d_52">
     <path d="M 310.741875 69.248562 
L 330.741875 69.248562 
" style="fill:none;stroke:#ff7f0e;stroke-linecap:square;stroke-width:1.5;"/>
    </g>
    <g id="line2d_53"/>
    <g id="text_19">
     <!-- R1Col4Ac000 -->
     <g transform="translate(338.741875 72.748562)scale(0.1 -0.1)">
      <use xlink:href="#DejaVuSans-82"/>
      <use x="69.482422" xlink:href="#DejaVuSans-49"/>
      <use x="133.105469" xlink:href="#DejaVuSans-67"/>
      <use x="202.929688" xlink:href="#DejaVuSans-111"/>
      <use x="264.111328" xlink:href="#DejaVuSans-108"/>
      <use x="291.894531" xlink:href="#DejaVuSans-52"/>
      <use x="355.517578" xlink:href="#DejaVuSans-65"/>
      <use x="423.910156" xlink:href="#DejaVuSans-99"/>
      <use x="478.890625" xlink:href="#DejaVuSans-48"/>
      <use x="542.513672" xlink:href="#DejaVuSans-48"/>
      <use x="606.136719" xlink:href="#DejaVuSans-48"/>
     </g>
    </g>
    <g id="line2d_54">
     <path d="M 310.741875 83.926687 
L 330.741875 83.926687 
" style="fill:none;stroke:#2ca02c;stroke-linecap:square;stroke-width:1.5;"/>
    </g>
    <g id="line2d_55"/>
    <g id="text_20">
     <!-- R2Col4Ac000 -->
     <g transform="translate(338.741875 87.426687)scale(0.1 -0.1)">
      <use xlink:href="#DejaVuSans-82"/>
      <use x="69.482422" xlink:href="#DejaVuSans-50"/>
      <use x="133.105469" xlink:href="#DejaVuSans-67"/>
      <use x="202.929688" xlink:href="#DejaVuSans-111"/>
      <use x="264.111328" xlink:href="#DejaVuSans-108"/>
      <use x="291.894531" xlink:href="#DejaVuSans-52"/>
      <use x="355.517578" xlink:href="#DejaVuSans-65"/>
      <use x="423.910156" xlink:href="#DejaVuSans-99"/>
      <use x="478.890625" xlink:href="#DejaVuSans-48"/>
      <use x="542.513672" xlink:href="#DejaVuSans-48"/>
      <use x="606.136719" xlink:href="#DejaVuSans-48"/>
     </g>
    </g>
    <g id="line2d_56">
     <path d="M 310.741875 98.604812 
L 330.741875 98.604812 
" style="fill:none;stroke:#d62728;stroke-linecap:square;stroke-width:1.5;"/>
    </g>
    <g id="line2d_57"/>
    <g id="text_21">
     <!-- R5Col3Ac000 -->
     <g transform="translate(338.741875 102.104812)scale(0.1 -0.1)">
      <use xlink:href="#DejaVuSans-82"/>
      <use x="69.482422" xlink:href="#DejaVuSans-53"/>
      <use x="133.105469" xlink:href="#DejaVuSans-67"/>
      <use x="202.929688" xlink:href="#DejaVuSans-111"/>
      <use x="264.111328" xlink:href="#DejaVuSans-108"/>
      <use x="291.894531" xlink:href="#DejaVuSans-51"/>
      <use x="355.517578" xlink:href="#DejaVuSans-65"/>
      <use x="423.910156" xlink:href="#DejaVuSans-99"/>
      <use x="478.890625" xlink:href="#DejaVuSans-48"/>
      <use x="542.513672" xlink:href="#DejaVuSans-48"/>
      <use x="606.136719" xlink:href="#DejaVuSans-48"/>
     </g>
    </g>
    <g id="line2d_58">
     <path d="M 310.741875 113.282938 
L 330.741875 113.282938 
" style="fill:none;stroke:#9467bd;stroke-linecap:square;stroke-width:1.5;"/>
    </g>
    <g id="line2d_59"/>
    <g id="text_22">
     <!-- R6Col3Ac000 -->
     <g transform="translate(338.741875 116.782938)scale(0.1 -0.1)">
      <use xlink:href="#DejaVuSans-82"/>
      <use x="69.482422" xlink:href="#DejaVuSans-54"/>
      <use x="133.105469" xlink:href="#DejaVuSans-67"/>
      <use x="202.929688" xlink:href="#DejaVuSans-111"/>
      <use x="264.111328" xlink:href="#DejaVuSans-108"/>
      <use x="291.894531" xlink:href="#DejaVuSans-51"/>
      <use x="355.517578" xlink:href="#DejaVuSans-65"/>
      <use x="423.910156" xlink:href="#DejaVuSans-99"/>
      <use x="478.890625" xlink:href="#DejaVuSans-48"/>
      <use x="542.513672" xlink:href="#DejaVuSans-48"/>
      <use x="606.136719" xlink:href="#DejaVuSans-48"/>
     </g>
    </g>
    <g id="line2d_60">
     <path d="M 310.741875 127.961062 
L 330.741875 127.961062 
" style="fill:none;stroke:#8c564b;stroke-linecap:square;stroke-width:1.5;"/>
    </g>
    <g id="line2d_61"/>
    <g id="text_23">
     <!-- R4Col1Ac000 -->
     <g transform="translate(338.741875 131.461062)scale(0.1 -0.1)">
      <use xlink:href="#DejaVuSans-82"/>
      <use x="69.482422" xlink:href="#DejaVuSans-52"/>
      <use x="133.105469" xlink:href="#DejaVuSans-67"/>
      <use x="202.929688" xlink:href="#DejaVuSans-111"/>
      <use x="264.111328" xlink:href="#DejaVuSans-108"/>
      <use x="291.894531" xlink:href="#DejaVuSans-49"/>
      <use x="355.517578" xlink:href="#DejaVuSans-65"/>
      <use x="423.910156" xlink:href="#DejaVuSans-99"/>
      <use x="478.890625" xlink:href="#DejaVuSans-48"/>
      <use x="542.513672" xlink:href="#DejaVuSans-48"/>
      <use x="606.136719" xlink:href="#DejaVuSans-48"/>
     </g>
    </g>
    <g id="line2d_62">
     <path d="M 310.741875 142.639187 
L 330.741875 142.639187 
" style="fill:none;stroke:#e377c2;stroke-linecap:square;stroke-width:1.5;"/>
    </g>
    <g id="line2d_63"/>
    <g id="text_24">
     <!-- R2Col3Ac000 -->
     <g transform="translate(338.741875 146.139187)scale(0.1 -0.1)">
      <use xlink:href="#DejaVuSans-82"/>
      <use x="69.482422" xlink:href="#DejaVuSans-50"/>
      <use x="133.105469" xlink:href="#DejaVuSans-67"/>
      <use x="202.929688" xlink:href="#DejaVuSans-111"/>
      <use x="264.111328" xlink:href="#DejaVuSans-108"/>
      <use x="291.894531" xlink:href="#DejaVuSans-51"/>
      <use x="355.517578" xlink:href="#DejaVuSans-65"/>
      <use x="423.910156" xlink:href="#DejaVuSans-99"/>
      <use x="478.890625" xlink:href="#DejaVuSans-48"/>
      <use x="542.513672" xlink:href="#DejaVuSans-48"/>
      <use x="606.136719" xlink:href="#DejaVuSans-48"/>
     </g>
    </g>
    <g id="line2d_64">
     <path d="M 310.741875 157.317312 
L 330.741875 157.317312 
" style="fill:none;stroke:#7f7f7f;stroke-linecap:square;stroke-width:1.5;"/>
    </g>
    <g id="line2d_65"/>
    <g id="text_25">
     <!-- R0Col2Ac000 -->
     <g transform="translate(338.741875 160.817312)scale(0.1 -0.1)">
      <use xlink:href="#DejaVuSans-82"/>
      <use x="69.482422" xlink:href="#DejaVuSans-48"/>
      <use x="133.105469" xlink:href="#DejaVuSans-67"/>
      <use x="202.929688" xlink:href="#DejaVuSans-111"/>
      <use x="264.111328" xlink:href="#DejaVuSans-108"/>
      <use x="291.894531" xlink:href="#DejaVuSans-50"/>
      <use x="355.517578" xlink:href="#DejaVuSans-65"/>
      <use x="423.910156" xlink:href="#DejaVuSans-99"/>
      <use x="478.890625" xlink:href="#DejaVuSans-48"/>
      <use x="542.513672" xlink:href="#DejaVuSans-48"/>
      <use x="606.136719" xlink:href="#DejaVuSans-48"/>
     </g>
    </g>
    <g id="line2d_66">
     <path d="M 310.741875 171.995437 
L 330.741875 171.995437 
" style="fill:none;stroke:#bcbd22;stroke-linecap:square;stroke-width:1.5;"/>
    </g>
    <g id="line2d_67"/>
    <g id="text_26">
     <!-- R5Col2Ac000 -->
     <g transform="translate(338.741875 175.495437)scale(0.1 -0.1)">
      <use xlink:href="#DejaVuSans-82"/>
      <use x="69.482422" xlink:href="#DejaVuSans-53"/>
      <use x="133.105469" xlink:href="#DejaVuSans-67"/>
      <use x="202.929688" xlink:href="#DejaVuSans-111"/>
      <use x="264.111328" xlink:href="#DejaVuSans-108"/>
      <use x="291.894531" xlink:href="#DejaVuSans-50"/>
      <use x="355.517578" xlink:href="#DejaVuSans-65"/>
      <use x="423.910156" xlink:href="#DejaVuSans-99"/>
      <use x="478.890625" xlink:href="#DejaVuSans-48"/>
      <use x="542.513672" xlink:href="#DejaVuSans-48"/>
      <use x="606.136719" xlink:href="#DejaVuSans-48"/>
     </g>
    </g>
    <g id="line2d_68">
     <path d="M 310.741875 186.673562 
L 330.741875 186.673562 
" style="fill:none;stroke:#17becf;stroke-linecap:square;stroke-width:1.5;"/>
    </g>
    <g id="line2d_69"/>
    <g id="text_27">
     <!-- R0Col3Ac000 -->
     <g transform="translate(338.741875 190.173562)scale(0.1 -0.1)">
      <use xlink:href="#DejaVuSans-82"/>
      <use x="69.482422" xlink:href="#DejaVuSans-48"/>
      <use x="133.105469" xlink:href="#DejaVuSans-67"/>
      <use x="202.929688" xlink:href="#DejaVuSans-111"/>
      <use x="264.111328" xlink:href="#DejaVuSans-108"/>
      <use x="291.894531" xlink:href="#DejaVuSans-51"/>
      <use x="355.517578" xlink:href="#DejaVuSans-65"/>
      <use x="423.910156" xlink:href="#DejaVuSans-99"/>
      <use x="478.890625" xlink:href="#DejaVuSans-48"/>
      <use x="542.513672" xlink:href="#DejaVuSans-48"/>
      <use x="606.136719" xlink:href="#DejaVuSans-48"/>
     </g>
    </g>
    <g id="line2d_70">
     <path d="M 310.741875 201.351687 
L 330.741875 201.351687 
" style="fill:none;stroke:#1f77b4;stroke-linecap:square;stroke-width:1.5;"/>
    </g>
    <g id="line2d_71"/>
    <g id="text_28">
     <!-- R1Col1Ac000 -->
     <g transform="translate(338.741875 204.851687)scale(0.1 -0.1)">
      <use xlink:href="#DejaVuSans-82"/>
      <use x="69.482422" xlink:href="#DejaVuSans-49"/>
      <use x="133.105469" xlink:href="#DejaVuSans-67"/>
      <use x="202.929688" xlink:href="#DejaVuSans-111"/>
      <use x="264.111328" xlink:href="#DejaVuSans-108"/>
      <use x="291.894531" xlink:href="#DejaVuSans-49"/>
      <use x="355.517578" xlink:href="#DejaVuSans-65"/>
      <use x="423.910156" xlink:href="#DejaVuSans-99"/>
      <use x="478.890625" xlink:href="#DejaVuSans-48"/>
      <use x="542.513672" xlink:href="#DejaVuSans-48"/>
      <use x="606.136719" xlink:href="#DejaVuSans-48"/>
     </g>
    </g>
    <g id="line2d_72">
     <path d="M 310.741875 216.029812 
L 330.741875 216.029812 
" style="fill:none;stroke:#ff7f0e;stroke-linecap:square;stroke-width:1.5;"/>
    </g>
    <g id="line2d_73"/>
    <g id="text_29">
     <!-- R3Col3Ac000 -->
     <g transform="translate(338.741875 219.529812)scale(0.1 -0.1)">
      <use xlink:href="#DejaVuSans-82"/>
      <use x="69.482422" xlink:href="#DejaVuSans-51"/>
      <use x="133.105469" xlink:href="#DejaVuSans-67"/>
      <use x="202.929688" xlink:href="#DejaVuSans-111"/>
      <use x="264.111328" xlink:href="#DejaVuSans-108"/>
      <use x="291.894531" xlink:href="#DejaVuSans-51"/>
      <use x="355.517578" xlink:href="#DejaVuSans-65"/>
      <use x="423.910156" xlink:href="#DejaVuSans-99"/>
      <use x="478.890625" xlink:href="#DejaVuSans-48"/>
      <use x="542.513672" xlink:href="#DejaVuSans-48"/>
      <use x="606.136719" xlink:href="#DejaVuSans-48"/>
     </g>
    </g>
    <g id="line2d_74">
     <path d="M 310.741875 230.707937 
L 330.741875 230.707937 
" style="fill:none;stroke:#2ca02c;stroke-linecap:square;stroke-width:1.5;"/>
    </g>
    <g id="line2d_75"/>
    <g id="text_30">
     <!-- R2Col2Ac000 -->
     <g transform="translate(338.741875 234.207937)scale(0.1 -0.1)">
      <use xlink:href="#DejaVuSans-82"/>
      <use x="69.482422" xlink:href="#DejaVuSans-50"/>
      <use x="133.105469" xlink:href="#DejaVuSans-67"/>
      <use x="202.929688" xlink:href="#DejaVuSans-111"/>
      <use x="264.111328" xlink:href="#DejaVuSans-108"/>
      <use x="291.894531" xlink:href="#DejaVuSans-50"/>
      <use x="355.517578" xlink:href="#DejaVuSans-65"/>
      <use x="423.910156" xlink:href="#DejaVuSans-99"/>
      <use x="478.890625" xlink:href="#DejaVuSans-48"/>
      <use x="542.513672" xlink:href="#DejaVuSans-48"/>
      <use x="606.136719" xlink:href="#DejaVuSans-48"/>
     </g>
    </g>
    <g id="line2d_76">
     <path d="M 310.741875 245.386062 
L 330.741875 245.386062 
" style="fill:none;stroke:#d62728;stroke-linecap:square;stroke-width:1.5;"/>
    </g>
    <g id="line2d_77"/>
    <g id="text_31">
     <!-- R5Col1Ac000 -->
     <g transform="translate(338.741875 248.886062)scale(0.1 -0.1)">
      <use xlink:href="#DejaVuSans-82"/>
      <use x="69.482422" xlink:href="#DejaVuSans-53"/>
      <use x="133.105469" xlink:href="#DejaVuSans-67"/>
      <use x="202.929688" xlink:href="#DejaVuSans-111"/>
      <use x="264.111328" xlink:href="#DejaVuSans-108"/>
      <use x="291.894531" xlink:href="#DejaVuSans-49"/>
      <use x="355.517578" xlink:href="#DejaVuSans-65"/>
      <use x="423.910156" xlink:href="#DejaVuSans-99"/>
      <use x="478.890625" xlink:href="#DejaVuSans-48"/>
      <use x="542.513672" xlink:href="#DejaVuSans-48"/>
      <use x="606.136719" xlink:href="#DejaVuSans-48"/>
     </g>
    </g>
    <g id="line2d_78">
     <path d="M 310.741875 260.064187 
L 330.741875 260.064187 
" style="fill:none;stroke:#9467bd;stroke-linecap:square;stroke-width:1.5;"/>
    </g>
    <g id="line2d_79"/>
    <g id="text_32">
     <!-- R1Col3Ac000 -->
     <g transform="translate(338.741875 263.564187)scale(0.1 -0.1)">
      <use xlink:href="#DejaVuSans-82"/>
      <use x="69.482422" xlink:href="#DejaVuSans-49"/>
      <use x="133.105469" xlink:href="#DejaVuSans-67"/>
      <use x="202.929688" xlink:href="#DejaVuSans-111"/>
      <use x="264.111328" xlink:href="#DejaVuSans-108"/>
      <use x="291.894531" xlink:href="#DejaVuSans-51"/>
      <use x="355.517578" xlink:href="#DejaVuSans-65"/>
      <use x="423.910156" xlink:href="#DejaVuSans-99"/>
      <use x="478.890625" xlink:href="#DejaVuSans-48"/>
      <use x="542.513672" xlink:href="#DejaVuSans-48"/>
      <use x="606.136719" xlink:href="#DejaVuSans-48"/>
     </g>
    </g>
    <g id="line2d_80">
     <path d="M 310.741875 274.742312 
L 330.741875 274.742312 
" style="fill:none;stroke:#8c564b;stroke-linecap:square;stroke-width:1.5;"/>
    </g>
    <g id="line2d_81"/>
    <g id="text_33">
     <!-- R1Col2Ac000 -->
     <g transform="translate(338.741875 278.242312)scale(0.1 -0.1)">
      <use xlink:href="#DejaVuSans-82"/>
      <use x="69.482422" xlink:href="#DejaVuSans-49"/>
      <use x="133.105469" xlink:href="#DejaVuSans-67"/>
      <use x="202.929688" xlink:href="#DejaVuSans-111"/>
      <use x="264.111328" xlink:href="#DejaVuSans-108"/>
      <use x="291.894531" xlink:href="#DejaVuSans-50"/>
      <use x="355.517578" xlink:href="#DejaVuSans-65"/>
      <use x="423.910156" xlink:href="#DejaVuSans-99"/>
      <use x="478.890625" xlink:href="#DejaVuSans-48"/>
      <use x="542.513672" xlink:href="#DejaVuSans-48"/>
      <use x="606.136719" xlink:href="#DejaVuSans-48"/>
     </g>
    </g>
    <g id="line2d_82">
     <path d="M 310.741875 289.420437 
L 330.741875 289.420437 
" style="fill:none;stroke:#e377c2;stroke-linecap:square;stroke-width:1.5;"/>
    </g>
    <g id="line2d_83"/>
    <g id="text_34">
     <!-- R4Col4Ac000 -->
     <g transform="translate(338.741875 292.920437)scale(0.1 -0.1)">
      <use xlink:href="#DejaVuSans-82"/>
      <use x="69.482422" xlink:href="#DejaVuSans-52"/>
      <use x="133.105469" xlink:href="#DejaVuSans-67"/>
      <use x="202.929688" xlink:href="#DejaVuSans-111"/>
      <use x="264.111328" xlink:href="#DejaVuSans-108"/>
      <use x="291.894531" xlink:href="#DejaVuSans-52"/>
      <use x="355.517578" xlink:href="#DejaVuSans-65"/>
      <use x="423.910156" xlink:href="#DejaVuSans-99"/>
      <use x="478.890625" xlink:href="#DejaVuSans-48"/>
      <use x="542.513672" xlink:href="#DejaVuSans-48"/>
      <use x="606.136719" xlink:href="#DejaVuSans-48"/>
     </g>
    </g>
    <g id="line2d_84">
     <path d="M 310.741875 304.098562 
L 330.741875 304.098562 
" style="fill:none;stroke:#7f7f7f;stroke-linecap:square;stroke-width:1.5;"/>
    </g>
    <g id="line2d_85"/>
    <g id="text_35">
     <!-- R5Col4Ac000 -->
     <g transform="translate(338.741875 307.598562)scale(0.1 -0.1)">
      <use xlink:href="#DejaVuSans-82"/>
      <use x="69.482422" xlink:href="#DejaVuSans-53"/>
      <use x="133.105469" xlink:href="#DejaVuSans-67"/>
      <use x="202.929688" xlink:href="#DejaVuSans-111"/>
      <use x="264.111328" xlink:href="#DejaVuSans-108"/>
      <use x="291.894531" xlink:href="#DejaVuSans-52"/>
      <use x="355.517578" xlink:href="#DejaVuSans-65"/>
      <use x="423.910156" xlink:href="#DejaVuSans-99"/>
      <use x="478.890625" xlink:href="#DejaVuSans-48"/>
      <use x="542.513672" xlink:href="#DejaVuSans-48"/>
      <use x="606.136719" xlink:href="#DejaVuSans-48"/>
     </g>
    </g>
    <g id="line2d_86">
     <path d="M 310.741875 318.776687 
L 330.741875 318.776687 
" style="fill:none;stroke:#bcbd22;stroke-linecap:square;stroke-width:1.5;"/>
    </g>
    <g id="line2d_87"/>
    <g id="text_36">
     <!-- R0Col1Ac000 -->
     <g transform="translate(338.741875 322.276687)scale(0.1 -0.1)">
      <use xlink:href="#DejaVuSans-82"/>
      <use x="69.482422" xlink:href="#DejaVuSans-48"/>
      <use x="133.105469" xlink:href="#DejaVuSans-67"/>
      <use x="202.929688" xlink:href="#DejaVuSans-111"/>
      <use x="264.111328" xlink:href="#DejaVuSans-108"/>
      <use x="291.894531" xlink:href="#DejaVuSans-49"/>
      <use x="355.517578" xlink:href="#DejaVuSans-65"/>
      <use x="423.910156" xlink:href="#DejaVuSans-99"/>
      <use x="478.890625" xlink:href="#DejaVuSans-48"/>
      <use x="542.513672" xlink:href="#DejaVuSans-48"/>
      <use x="606.136719" xlink:href="#DejaVuSans-48"/>
     </g>
    </g>
    <g id="line2d_88">
     <path d="M 310.741875 333.454812 
L 330.741875 333.454812 
" style="fill:none;stroke:#17becf;stroke-linecap:square;stroke-width:1.5;"/>
    </g>
    <g id="line2d_89"/>
    <g id="text_37">
     <!-- R7Col1Ac000 -->
     <g transform="translate(338.741875 336.954812)scale(0.1 -0.1)">
      <use xlink:href="#DejaVuSans-82"/>
      <use x="69.482422" xlink:href="#DejaVuSans-55"/>
      <use x="133.105469" xlink:href="#DejaVuSans-67"/>
      <use x="202.929688" xlink:href="#DejaVuSans-111"/>
      <use x="264.111328" xlink:href="#DejaVuSans-108"/>
      <use x="291.894531" xlink:href="#DejaVuSans-49"/>
      <use x="355.517578" xlink:href="#DejaVuSans-65"/>
      <use x="423.910156" xlink:href="#DejaVuSans-99"/>
      <use x="478.890625" xlink:href="#DejaVuSans-48"/>
      <use x="542.513672" xlink:href="#DejaVuSans-48"/>
      <use x="606.136719" xlink:href="#DejaVuSans-48"/>
     </g>
    </g>
    <g id="line2d_90">
     <path style="fill:none;stroke:#1f77b4;stroke-linecap:square;stroke-width:1.5;"/>
    </g>
    <g id="line2d_91"/>
    <g id="text_38">
     <!-- R7Col2Ac000 -->
     <g transform="translate(338.741875 351.632937)scale(0.1 -0.1)">
      <use xlink:href="#DejaVuSans-82"/>
      <use x="69.482422" xlink:href="#DejaVuSans-55"/>
      <use x="133.105469" xlink:href="#DejaVuSans-67"/>
      <use x="202.929688" xlink:href="#DejaVuSans-111"/>
      <use x="264.111328" xlink:href="#DejaVuSans-108"/>
      <use x="291.894531" xlink:href="#DejaVuSans-50"/>
      <use x="355.517578" xlink:href="#DejaVuSans-65"/>
      <use x="423.910156" xlink:href="#DejaVuSans-99"/>
      <use x="478.890625" xlink:href="#DejaVuSans-48"/>
      <use x="542.513672" xlink:href="#DejaVuSans-48"/>
      <use x="606.136719" xlink:href="#DejaVuSans-48"/>
     </g>
    </g>
    <g id="line2d_92">
     <path style="fill:none;stroke:#ff7f0e;stroke-linecap:square;stroke-width:1.5;"/>
    </g>
    <g id="line2d_93"/>
    <g id="text_39">
     <!-- R6Col1Ac000 -->
     <g transform="translate(338.741875 366.311062)scale(0.1 -0.1)">
      <use xlink:href="#DejaVuSans-82"/>
      <use x="69.482422" xlink:href="#DejaVuSans-54"/>
      <use x="133.105469" xlink:href="#DejaVuSans-67"/>
      <use x="202.929688" xlink:href="#DejaVuSans-111"/>
      <use x="264.111328" xlink:href="#DejaVuSans-108"/>
      <use x="291.894531" xlink:href="#DejaVuSans-49"/>
      <use x="355.517578" xlink:href="#DejaVuSans-65"/>
      <use x="423.910156" xlink:href="#DejaVuSans-99"/>
      <use x="478.890625" xlink:href="#DejaVuSans-48"/>
      <use x="542.513672" xlink:href="#DejaVuSans-48"/>
      <use x="606.136719" xlink:href="#DejaVuSans-48"/>
     </g>
    </g>
    <g id="line2d_94">
     <path style="fill:none;stroke:#2ca02c;stroke-linecap:square;stroke-width:1.5;"/>
    </g>
    <g id="line2d_95"/>
    <g id="text_40">
     <!-- R6Col4Ac000 -->
     <g transform="translate(338.741875 380.989188)scale(0.1 -0.1)">
      <use xlink:href="#DejaVuSans-82"/>
      <use x="69.482422" xlink:href="#DejaVuSans-54"/>
      <use x="133.105469" xlink:href="#DejaVuSans-67"/>
      <use x="202.929688" xlink:href="#DejaVuSans-111"/>
      <use x="264.111328" xlink:href="#DejaVuSans-108"/>
      <use x="291.894531" xlink:href="#DejaVuSans-52"/>
      <use x="355.517578" xlink:href="#DejaVuSans-65"/>
      <use x="423.910156" xlink:href="#DejaVuSans-99"/>
      <use x="478.890625" xlink:href="#DejaVuSans-48"/>
      <use x="542.513672" xlink:href="#DejaVuSans-48"/>
      <use x="606.136719" xlink:href="#DejaVuSans-48"/>
     </g>
    </g>
    <g id="line2d_96">
     <path style="fill:none;stroke:#d62728;stroke-linecap:square;stroke-width:1.5;"/>
    </g>
    <g id="line2d_97"/>
    <g id="text_41">
     <!-- R7Col3Ac000 -->
     <g transform="translate(338.741875 395.667313)scale(0.1 -0.1)">
      <use xlink:href="#DejaVuSans-82"/>
      <use x="69.482422" xlink:href="#DejaVuSans-55"/>
      <use x="133.105469" xlink:href="#DejaVuSans-67"/>
      <use x="202.929688" xlink:href="#DejaVuSans-111"/>
      <use x="264.111328" xlink:href="#DejaVuSans-108"/>
      <use x="291.894531" xlink:href="#DejaVuSans-51"/>
      <use x="355.517578" xlink:href="#DejaVuSans-65"/>
      <use x="423.910156" xlink:href="#DejaVuSans-99"/>
      <use x="478.890625" xlink:href="#DejaVuSans-48"/>
      <use x="542.513672" xlink:href="#DejaVuSans-48"/>
      <use x="606.136719" xlink:href="#DejaVuSans-48"/>
     </g>
    </g>
    <g id="line2d_98">
     <path style="fill:none;stroke:#9467bd;stroke-linecap:square;stroke-width:1.5;"/>
    </g>
    <g id="line2d_99"/>
    <g id="text_42">
     <!-- R6Col2Ac000 -->
     <g transform="translate(338.741875 410.345438)scale(0.1 -0.1)">
      <use xlink:href="#DejaVuSans-82"/>
      <use x="69.482422" xlink:href="#DejaVuSans-54"/>
      <use x="133.105469" xlink:href="#DejaVuSans-67"/>
      <use x="202.929688" xlink:href="#DejaVuSans-111"/>
      <use x="264.111328" xlink:href="#DejaVuSans-108"/>
      <use x="291.894531" xlink:href="#DejaVuSans-50"/>
      <use x="355.517578" xlink:href="#DejaVuSans-65"/>
      <use x="423.910156" xlink:href="#DejaVuSans-99"/>
      <use x="478.890625" xlink:href="#DejaVuSans-48"/>
      <use x="542.513672" xlink:href="#DejaVuSans-48"/>
      <use x="606.136719" xlink:href="#DejaVuSans-48"/>
     </g>
    </g>
    <g id="line2d_100">
     <path style="fill:none;stroke:#8c564b;stroke-linecap:square;stroke-width:1.5;"/>
    </g>
    <g id="line2d_101"/>
    <g id="text_43">
     <!-- R2Col1Ac000 -->
     <g transform="translate(338.741875 425.023563)scale(0.1 -0.1)">
      <use xlink:href="#DejaVuSans-82"/>
      <use x="69.482422" xlink:href="#DejaVuSans-50"/>
      <use x="133.105469" xlink:href="#DejaVuSans-67"/>
      <use x="202.929688" xlink:href="#DejaVuSans-111"/>
      <use x="264.111328" xlink:href="#DejaVuSans-108"/>
      <use x="291.894531" xlink:href="#DejaVuSans-49"/>
      <use x="355.517578" xlink:href="#DejaVuSans-65"/>
      <use x="423.910156" xlink:href="#DejaVuSans-99"/>
      <use x="478.890625" xlink:href="#DejaVuSans-48"/>
      <use x="542.513672" xlink:href="#DejaVuSans-48"/>
      <use x="606.136719" xlink:href="#DejaVuSans-48"/>
     </g>
    </g>
    <g id="line2d_102">
     <path style="fill:none;stroke:#e377c2;stroke-linecap:square;stroke-width:1.5;"/>
    </g>
    <g id="line2d_103"/>
    <g id="text_44">
     <!-- R0Col4Ac000 -->
     <g transform="translate(338.741875 439.701688)scale(0.1 -0.1)">
      <use xlink:href="#DejaVuSans-82"/>
      <use x="69.482422" xlink:href="#DejaVuSans-48"/>
      <use x="133.105469" xlink:href="#DejaVuSans-67"/>
      <use x="202.929688" xlink:href="#DejaVuSans-111"/>
      <use x="264.111328" xlink:href="#DejaVuSans-108"/>
      <use x="291.894531" xlink:href="#DejaVuSans-52"/>
      <use x="355.517578" xlink:href="#DejaVuSans-65"/>
      <use x="423.910156" xlink:href="#DejaVuSans-99"/>
      <use x="478.890625" xlink:href="#DejaVuSans-48"/>
      <use x="542.513672" xlink:href="#DejaVuSans-48"/>
      <use x="606.136719" xlink:href="#DejaVuSans-48"/>
     </g>
    </g>
    <g id="line2d_104">
     <path style="fill:none;stroke:#7f7f7f;stroke-linecap:square;stroke-width:1.5;"/>
    </g>
    <g id="line2d_105"/>
    <g id="text_45">
     <!-- R4Col2Ac000 -->
     <g transform="translate(338.741875 454.379813)scale(0.1 -0.1)">
      <use xlink:href="#DejaVuSans-82"/>
      <use x="69.482422" xlink:href="#DejaVuSans-52"/>
      <use x="133.105469" xlink:href="#DejaVuSans-67"/>
      <use x="202.929688" xlink:href="#DejaVuSans-111"/>
      <use x="264.111328" xlink:href="#DejaVuSans-108"/>
      <use x="291.894531" xlink:href="#DejaVuSans-50"/>
      <use x="355.517578" xlink:href="#DejaVuSans-65"/>
      <use x="423.910156" xlink:href="#DejaVuSans-99"/>
      <use x="478.890625" xlink:href="#DejaVuSans-48"/>
      <use x="542.513672" xlink:href="#DejaVuSans-48"/>
      <use x="606.136719" xlink:href="#DejaVuSans-48"/>
     </g>
    </g>
    <g id="line2d_106">
     <path style="fill:none;stroke:#bcbd22;stroke-linecap:square;stroke-width:1.5;"/>
    </g>
    <g id="line2d_107"/>
    <g id="text_46">
     <!-- R7Col4Ac000 -->
     <g transform="translate(338.741875 469.057938)scale(0.1 -0.1)">
      <use xlink:href="#DejaVuSans-82"/>
      <use x="69.482422" xlink:href="#DejaVuSans-55"/>
      <use x="133.105469" xlink:href="#DejaVuSans-67"/>
      <use x="202.929688" xlink:href="#DejaVuSans-111"/>
      <use x="264.111328" xlink:href="#DejaVuSans-108"/>
      <use x="291.894531" xlink:href="#DejaVuSans-52"/>
      <use x="355.517578" xlink:href="#DejaVuSans-65"/>
      <use x="423.910156" xlink:href="#DejaVuSans-99"/>
      <use x="478.890625" xlink:href="#DejaVuSans-48"/>
      <use x="542.513672" xlink:href="#DejaVuSans-48"/>
      <use x="606.136719" xlink:href="#DejaVuSans-48"/>
     </g>
    </g>
    <g id="line2d_108">
     <path style="fill:none;stroke:#17becf;stroke-linecap:square;stroke-width:1.5;"/>
    </g>
    <g id="line2d_109"/>
    <g id="text_47">
     <!-- R3Col1Ac000 -->
     <g transform="translate(338.741875 483.736063)scale(0.1 -0.1)">
      <use xlink:href="#DejaVuSans-82"/>
      <use x="69.482422" xlink:href="#DejaVuSans-51"/>
      <use x="133.105469" xlink:href="#DejaVuSans-67"/>
      <use x="202.929688" xlink:href="#DejaVuSans-111"/>
      <use x="264.111328" xlink:href="#DejaVuSans-108"/>
      <use x="291.894531" xlink:href="#DejaVuSans-49"/>
      <use x="355.517578" xlink:href="#DejaVuSans-65"/>
      <use x="423.910156" xlink:href="#DejaVuSans-99"/>
      <use x="478.890625" xlink:href="#DejaVuSans-48"/>
      <use x="542.513672" xlink:href="#DejaVuSans-48"/>
      <use x="606.136719" xlink:href="#DejaVuSans-48"/>
     </g>
    </g>
    <g id="line2d_110">
     <path style="fill:none;stroke:#1f77b4;stroke-linecap:square;stroke-width:1.5;"/>
    </g>
    <g id="line2d_111"/>
    <g id="text_48">
     <!-- R3Col2Ac000 -->
     <g transform="translate(338.741875 498.414188)scale(0.1 -0.1)">
      <use xlink:href="#DejaVuSans-82"/>
      <use x="69.482422" xlink:href="#DejaVuSans-51"/>
      <use x="133.105469" xlink:href="#DejaVuSans-67"/>
      <use x="202.929688" xlink:href="#DejaVuSans-111"/>
      <use x="264.111328" xlink:href="#DejaVuSans-108"/>
      <use x="291.894531" xlink:href="#DejaVuSans-50"/>
      <use x="355.517578" xlink:href="#DejaVuSans-65"/>
      <use x="423.910156" xlink:href="#DejaVuSans-99"/>
      <use x="478.890625" xlink:href="#DejaVuSans-48"/>
      <use x="542.513672" xlink:href="#DejaVuSans-48"/>
      <use x="606.136719" xlink:href="#DejaVuSans-48"/>
     </g>
    </g>
    <g id="line2d_112">
     <path style="fill:none;stroke:#ff7f0e;stroke-linecap:square;stroke-width:1.5;"/>
    </g>
    <g id="line2d_113"/>
    <g id="text_49">
     <!-- R3Col4Ac000 -->
     <g transform="translate(338.741875 513.092313)scale(0.1 -0.1)">
      <use xlink:href="#DejaVuSans-82"/>
      <use x="69.482422" xlink:href="#DejaVuSans-51"/>
      <use x="133.105469" xlink:href="#DejaVuSans-67"/>
      <use x="202.929688" xlink:href="#DejaVuSans-111"/>
      <use x="264.111328" xlink:href="#DejaVuSans-108"/>
      <use x="291.894531" xlink:href="#DejaVuSans-52"/>
      <use x="355.517578" xlink:href="#DejaVuSans-65"/>
      <use x="423.910156" xlink:href="#DejaVuSans-99"/>
      <use x="478.890625" xlink:href="#DejaVuSans-48"/>
      <use x="542.513672" xlink:href="#DejaVuSans-48"/>
      <use x="606.136719" xlink:href="#DejaVuSans-48"/>
     </g>
    </g>
   </g>
  </g>
 </g>
 <defs>
  <clipPath id="p8788f87291">
   <rect height="266.112" width="357.12" x="57.6" y="41.472"/>
  </clipPath>
 </defs>
</svg>
